<svg width="16" height="11" viewBox="0 0 16 11" fill="none" xmlns="http://www.w3.org/2000/svg">
<path d="M8.11789 0.991586C7.9229 1.09678 7.80133 1.29682 7.80133 1.51439V4.90226H1.11191C0.774137 4.90226 0.5 5.17004 0.5 5.49998C0.5 5.82993 0.774137 6.0977 1.11191 6.0977H7.80133V9.48558C7.80133 9.70394 7.9229 9.90398 8.11789 10.0084C8.31289 10.1144 8.55113 10.1072 8.7396 9.99165L15.2144 6.00605C15.3923 5.89607 15.5 5.7056 15.5 5.49998C15.5 5.29437 15.3923 5.1039 15.2144 4.99392L8.7396 1.00832C8.64006 0.947753 8.52665 0.916672 8.41324 0.916672C8.31208 0.916672 8.21009 0.942174 8.11789 0.991586Z" fill="#CF7D4E"/>
</svg>
